Coordinates
version=1
nRows=24
nColumns=24
inDegrees=yes

Units are S.I. units (second, meters, Newtons, ...)
Angles are in degrees.

endheader
time	pelvis_tilt	pelvis_list	pelvis_rotation	pelvis_tx	pelvis_ty	pelvis_tz	hip_flexion_r	hip_adduction_r	hip_rotation_r	knee_angle_r	ankle_angle_r	subtalar_angle_r	mtp_angle_r	hip_flexion_l	hip_adduction_l	hip_rotation_l	knee_angle_l	ankle_angle_l	subtalar_angle_l	mtp_angle_l	lumbar_extension	lumbar_bending	lumbar_rotation
      0.63800000	     -0.35789479	      5.21522252	      3.90865824	     -0.81973925	      0.96472327	      0.30556812	     30.36002877	     -5.67605346	     -3.01035843	     -9.81569874	     12.60862845	     -6.64389675	      0.58369344	    -18.34032135	      7.24087392	      5.98923695	    -10.67934491	     10.33665568	    -10.54748875	      0.72199157	      0.55042008	     -2.24889438	     -1.85413515
      0.64216667	     -0.35027078	      5.13653189	      3.97591510	     -0.81350003	      0.96410268	      0.30600361	     30.35810245	     -5.59563219	     -2.94472729	    -10.36429424	     12.54384309	     -6.71834770	      3.15251401	    -18.48633906	      7.08273734	      5.80518062	    -11.10038485	     10.14522971	    -10.37900408	      4.29573940	      0.61568141	     -2.15586305	     -1.87594334
      0.64633333	     -0.37961044	      5.05022402	      4.02737763	     -0.80719876	      0.96345741	      0.30645164	     30.37591050	     -5.49385619	     -2.83219574	    -10.89500725	     12.40195312	     -6.77623488	      3.15654160	    -18.60910078	      6.93922824	      5.72175783	    -11.49919156	      9.92067719	    -10.42618815	      4.30049756	      0.73264287	     -2.05418273	     -1.91437728
      0.65050000	     -0.48424526	      4.96587001	      4.09411284	     -0.80088651	      0.96273677	      0.30691422	     30.44531571	     -5.38454256	     -2.61546495	    -11.39593428	     12.23871182	     -7.07897626	      3.19512050	    -18.60567602	      6.79705558	      5.59672643	    -11.98545558	      9.72122982	    -10.36424685	      4.40035090	      0.95303740	     -1.95624014	     -2.04157431
      0.65466667	     -0.50301305	      4.85667310	      4.14436751	     -0.79446740	      0.96215319	      0.30737136	     30.41886491	     -5.25307265	     -2.53133349	    -11.91273160	     12.06288510	     -7.15630550	      3.20243924	    -18.72109042	      6.62841941	      5.48594855	    -12.41318596	      9.42945822	    -10.40094174	      4.42382200	      1.07025647	     -1.82614196	     -2.06375816
      0.65883333	     -0.60575251	      4.73475570	      4.19516515	     -0.78804231	      0.96149022	      0.30788821	     30.43911123	     -5.08557832	     -2.29864780	    -12.35170821	     11.74911587	     -7.55632982	      3.26526590	    -18.69410918	      6.44842605	      5.31068639	    -12.93476100	      9.18777893	    -10.34317610	      4.64555866	      1.29516547	     -1.68612064	     -2.15036516
      0.66300000	     -0.63447033	      4.60185399	      4.23739614	     -0.78151596	      0.96094355	      0.30836315	     30.40552886	     -4.92477956	     -2.26441361	    -12.86725655	     11.52612948	     -7.61958088	      3.27449526	    -18.77405167	      6.25914363	      5.17777378	    -13.40335979	      8.83527176	    -10.40143227	      4.68153522	      1.43614583	     -1.53256514	     -2.16128911
      0.66716667	     -0.75342812	      4.43510544	      4.28010137	     -0.77497760	      0.96033280	      0.30891765	     30.39515004	     -4.69543703	     -2.01143209	    -13.23756571	     11.13738950	     -8.17766050	      3.45125381	    -18.70012690	      6.03218549	      4.95404339	    -13.97104529	      8.49582751	    -10.32179402	      5.32294207	      1.70996419	     -1.33113543	     -2.21266077
      0.67133333	     -0.82325799	      4.28583459	      4.30271120	     -0.76835765	      0.95979359	      0.30940848	     30.38511723	     -4.50944717	     -1.99565099	    -13.71869623	     10.73107706	     -8.17766647	      3.47552887	    -18.70985729	      5.83889511	      4.79902975	    -14.47676546	      8.08667686	    -10.41557339	      5.42484148	      1.93133190	     -1.13592797	     -2.21592429
      0.67550000	     -0.91547094	      4.09939142	      4.33909481	     -0.76175094	      0.95926831	      0.30995086	     30.37001160	     -4.27536944	     -1.91937300	    -14.15213111	     10.27385933	     -8.48983438	      4.64852195	    -18.63093212	      5.59146691	      4.55778497	    -15.08928595	      7.66381258	    -10.46406891	      9.66672095	      2.14892426	     -0.91938861	     -2.18530896
      0.67966667	     -1.01620071	      3.94509286	      4.33646901	     -0.75506874	      0.95876487	      0.31048275	     30.38269887	     -4.07065204	     -1.89682866	    -14.62174625	      9.85590502	     -8.53348821	      4.65023747	    -18.57583352	      5.40327674	      4.37363921	    -15.64347598	      7.13418077	    -10.56026263	      9.68248765	      2.42817484	     -0.72641943	     -2.20770217
      0.68383333	     -1.13399537	      3.76370472	      4.34358527	     -0.74838336	      0.95828488	      0.31102241	     30.40574523	     -3.84092444	     -1.88140842	    -15.08350048	      9.39089110	     -8.63892834	      4.65658372	    -18.46143943	      5.18257021	      4.16731752	    -16.26377416	      6.61799578	    -10.65566534	      9.72347637	      2.71253490	     -0.50826933	     -2.20791392
      0.68800000	     -1.26112769	      3.56792439	      4.33800669	     -0.74169564	      0.95783462	      0.31161743	     30.43623636	     -3.58486786	     -1.84380963	    -15.53924994	      8.90437504	     -8.79181336	      4.66972106	    -18.31425521	      4.94654731	      3.93887446	    -16.91838144	      6.07158813	    -10.73421943	      9.79770909	      2.99596916	     -0.27702540	     -2.19217592
      0.69216667	     -1.40433036	      3.36639807	      4.31481104	     -0.73504617	      0.95739629	      0.31227578	     30.48536192	     -3.30282649	     -1.73231645	    -15.99641256	      8.39431244	     -9.27912157	      4.74255894	    -18.10136701	      4.70137806	      3.63713749	    -17.65646667	      5.57418217	    -10.73555696	     10.14589587	      3.29799515	     -0.05555667	     -2.12956255
      0.69633333	     -1.51885515	      3.15202138	      4.27866758	     -0.72834520	      0.95706064	      0.31291897	     30.50209310	     -3.01702302	     -1.70384326	    -16.45093604	      7.91627461	     -9.35644932	      4.79600766	    -17.91874489	      4.44831459	      3.35715194	    -18.37817530	      4.95930867	    -10.82380846	     10.41825047	      3.57349414	      0.19407878	     -2.08308127
      0.70050000	     -1.60696283	      2.93083069	      4.22432714	     -0.72159182	      0.95679599	      0.31356999	     30.51939730	     -2.72703608	     -1.73846036	    -16.98081593	      7.57608035	     -9.40398830	      4.81529494	    -17.77561900	      4.18835902	      3.07527307	    -19.07162189	      4.25459171	    -10.90087089	     10.52740711	      3.83797524	      0.48542728	     -2.05162856
      0.70466667	     -1.71531091	      2.67811620	      4.16659555	     -0.71492363	      0.95654347	      0.31430942	     30.54313788	     -2.38525010	     -1.68606100	    -17.46696804	      7.13728285	     -9.73398809	      5.58272769	    -17.53269204	      3.87808777	      2.70035341	    -19.89301772	      3.57664328	    -10.94815214	     15.05447539	      4.10196504	      0.77774655	     -1.98643947
      0.70883333	     -1.81736682	      2.46869685	      4.07373143	     -0.70824622	      0.95635412	      0.31506302	     30.59499488	     -2.08429792	     -1.65775485	    -18.02667579	      6.80533048	     -9.75779057	      5.58149750	    -17.30967135	      3.63310903	      2.38400032	    -20.67749753	      2.80609405	    -11.02443764	     15.07290998	      4.35418153	      1.01875279	     -1.90388493
      0.71300000	     -1.89442442	      2.24377359	      3.97741815	     -0.70157113	      0.95623905	      0.31581420	     30.62996905	     -1.77211814	     -1.66751611	    -18.61618086	      6.54402311	     -9.81443984	      5.57981032	    -17.09272542	      3.36686824	      2.06459485	    -21.49819174	      2.02229962	    -11.08858543	     15.09595028	      4.59624230	      1.31626321	     -1.83816439
      0.71716667	     -2.01456593	      2.01736474	      3.86729142	     -0.69499280	      0.95611282	      0.31666470	     30.70347053	     -1.43274021	     -1.56163979	    -19.17813180	      6.25978975	    -10.02740016	      5.57341618	    -16.75975255	      3.08916074	      1.68386020	    -22.43079914	      1.26919551	    -11.10572293	     15.19950504	      4.86356226	      1.57515993	     -1.69485662
      0.72133333	     -2.08644940	      1.77118344	      3.73772996	     -0.68841855	      0.95608619	      0.31756601	     30.74101436	     -1.06418137	     -1.48221049	    -19.78079508	      6.05639217	    -10.27226509	      5.55753637	    -16.47451181	      2.78610135	      1.31203873	    -23.35868809	      0.45892476	    -11.11358150	     15.39282221	      5.06852568	      1.86111332	     -1.55960348
      0.72550000	     -2.14684985	      1.53687769	      3.60250986	     -0.68188923	      0.95613312	      0.31846764	     30.76612110	     -0.70816439	     -1.40094793	    -20.38432930	      5.91800302	    -10.41651378	      5.53254864	    -16.17149771	      2.49365707	      0.95428018	    -24.32443590	     -0.39401355	    -11.14494700	     15.61182371	      5.25647082	      2.14310759	     -1.45584266
      0.72966667	     -2.19972795	      1.30102556	      3.46194894	     -0.67541001	      0.95623491	      0.31941290	     30.78273527	     -0.34265043	     -1.30620786	    -20.98885703	      5.82833287	    -10.57291655	      5.49524275	    -15.84568420	      2.19096732	      0.59561133	    -25.33107449	     -1.27529676	    -11.16898467	     15.84872302	      5.42891466	      2.42269166	     -1.35408169
      0.73383333	     -2.22873179	      1.06734589	      3.32911369	     -0.66899119	      0.95642311	      0.32037690	     30.76199960	      0.02274240	     -1.20143526	    -21.57375682	      5.78701368	    -10.76955161	      5.42053580	    -15.50748710	      1.87728824	      0.25225601	    -26.38587097	     -2.21703140	    -11.16320894	     16.21246297	      5.56545927	      2.69253808	     -1.22855383
